<svg xmlns="http://www.w3.org/2000/svg" version="1.1" width="600px" height="600px" viewBox="0 0 200 200" style="overflow:hidden!important;"><defs id="SvgjsDefs108835"><linearGradient id="SvgjsLinearGradient109537" x1="81.6" y1="112.4347" x2="81.6" y2="87.4347" gradientTransform="matrix(1 0 0 -1 0 200)" gradientUnits="userSpaceOnUse" class="svga-on-canvas-glasses-gradient-single-0-null"><stop id="SvgjsStop109538" stop-opacity="1" stop-color="#9ab4d3" offset="0" ></stop><stop id="SvgjsStop109539" stop-opacity="0.7593" stop-color="#93aed1" offset="0.2407" ></stop><stop id="SvgjsStop109540" stop-opacity="0.4009" stop-color="#7e9ecc" offset="0.5991" ></stop><stop id="SvgjsStop109541" stop-opacity="0" stop-color="#6086c4" offset="1" ></stop></linearGradient><linearGradient id="SvgjsLinearGradient109543" x1="-18.4" y1="112.4347" x2="-18.4" y2="87.4347" gradientTransform="matrix(-1 0 0 -1 100 200)" gradientUnits="userSpaceOnUse" class="svga-on-canvas-glasses-gradient-single-1-null"><stop id="SvgjsStop109544" stop-opacity="1" stop-color="#9ab4d3" offset="0" ></stop><stop id="SvgjsStop109545" stop-opacity="0.7593" stop-color="#93aed1" offset="0.2407" ></stop><stop id="SvgjsStop109546" stop-opacity="0.4009" stop-color="#7e9ecc" offset="0.5991" ></stop><stop id="SvgjsStop109547" stop-opacity="0" stop-color="#6086c4" offset="1" ></stop></linearGradient><linearGradient id="SvgjsLinearGradient110006" x1="81.6" y1="112.4347" x2="81.6" y2="87.4347" gradientTransform="matrix(1 0 0 -1 0 200)" gradientUnits="userSpaceOnUse" class="svga-on-canvas-glasses-gradient-single-0-null"><stop id="SvgjsStop110007" stop-opacity="1" stop-color="#9ab4d3" offset="0" ></stop><stop id="SvgjsStop110008" stop-opacity="0.7593" stop-color="#93aed1" offset="0.2407" ></stop><stop id="SvgjsStop110009" stop-opacity="0.4009" stop-color="#7e9ecc" offset="0.5991" ></stop><stop id="SvgjsStop110010" stop-opacity="0" stop-color="#6086c4" offset="1" ></stop></linearGradient><linearGradient id="SvgjsLinearGradient110012" x1="-18.4" y1="112.4347" x2="-18.4" y2="87.4347" gradientTransform="matrix(-1 0 0 -1 100 200)" gradientUnits="userSpaceOnUse" class="svga-on-canvas-glasses-gradient-single-1-null"><stop id="SvgjsStop110013" stop-opacity="1" stop-color="#9ab4d3" offset="0" ></stop><stop id="SvgjsStop110014" stop-opacity="0.7593" stop-color="#93aed1" offset="0.2407" ></stop><stop id="SvgjsStop110015" stop-opacity="0.4009" stop-color="#7e9ecc" offset="0.5991" ></stop><stop id="SvgjsStop110016" stop-opacity="0" stop-color="#6086c4" offset="1" ></stop></linearGradient><linearGradient id="SvgjsLinearGradient110346" x1="81.6" y1="112.4347" x2="81.6" y2="87.4347" gradientTransform="matrix(1 0 0 -1 0 200)" gradientUnits="userSpaceOnUse" class="svga-on-canvas-glasses-gradient-single-0-null"><stop id="SvgjsStop110347" stop-opacity="1" stop-color="#9ab4d3" offset="0" ></stop><stop id="SvgjsStop110348" stop-opacity="0.7593" stop-color="#93aed1" offset="0.2407" ></stop><stop id="SvgjsStop110349" stop-opacity="0.4009" stop-color="#7e9ecc" offset="0.5991" ></stop><stop id="SvgjsStop110350" stop-opacity="0" stop-color="#6086c4" offset="1" ></stop></linearGradient><linearGradient id="SvgjsLinearGradient110352" x1="-18.4" y1="112.4347" x2="-18.4" y2="87.4347" gradientTransform="matrix(-1 0 0 -1 100 200)" gradientUnits="userSpaceOnUse" class="svga-on-canvas-glasses-gradient-single-1-null"><stop id="SvgjsStop110353" stop-opacity="1" stop-color="#9ab4d3" offset="0" ></stop><stop id="SvgjsStop110354" stop-opacity="0.7593" stop-color="#93aed1" offset="0.2407" ></stop><stop id="SvgjsStop110355" stop-opacity="0.4009" stop-color="#7e9ecc" offset="0.5991" ></stop><stop id="SvgjsStop110356" stop-opacity="0" stop-color="#6086c4" offset="1" ></stop></linearGradient><linearGradient id="SvgjsLinearGradient110686" x1="81.6" y1="112.4347" x2="81.6" y2="87.4347" gradientTransform="matrix(1 0 0 -1 0 200)" gradientUnits="userSpaceOnUse" class="svga-on-canvas-glasses-gradient-single-0-null"><stop id="SvgjsStop110687" stop-opacity="1" stop-color="#9ab4d3" offset="0" ></stop><stop id="SvgjsStop110688" stop-opacity="0.7593" stop-color="#93aed1" offset="0.2407" ></stop><stop id="SvgjsStop110689" stop-opacity="0.4009" stop-color="#7e9ecc" offset="0.5991" ></stop><stop id="SvgjsStop110690" stop-opacity="0" stop-color="#6086c4" offset="1" ></stop></linearGradient><linearGradient id="SvgjsLinearGradient110692" x1="-18.4" y1="112.4347" x2="-18.4" y2="87.4347" gradientTransform="matrix(-1 0 0 -1 100 200)" gradientUnits="userSpaceOnUse" class="svga-on-canvas-glasses-gradient-single-1-null"><stop id="SvgjsStop110693" stop-opacity="1" stop-color="#9ab4d3" offset="0" ></stop><stop id="SvgjsStop110694" stop-opacity="0.7593" stop-color="#93aed1" offset="0.2407" ></stop><stop id="SvgjsStop110695" stop-opacity="0.4009" stop-color="#7e9ecc" offset="0.5991" ></stop><stop id="SvgjsStop110696" stop-opacity="0" stop-color="#6086c4" offset="1" ></stop></linearGradient><linearGradient id="SvgjsLinearGradient111026" x1="81.6" y1="112.4347" x2="81.6" y2="87.4347" gradientTransform="matrix(1 0 0 -1 0 200)" gradientUnits="userSpaceOnUse" class="svga-on-canvas-glasses-gradient-single-0-null"><stop id="SvgjsStop111027" stop-opacity="1" stop-color="#9ab4d3" offset="0" ></stop><stop id="SvgjsStop111028" stop-opacity="0.7593" stop-color="#93aed1" offset="0.2407" ></stop><stop id="SvgjsStop111029" stop-opacity="0.4009" stop-color="#7e9ecc" offset="0.5991" ></stop><stop id="SvgjsStop111030" stop-opacity="0" stop-color="#6086c4" offset="1" ></stop></linearGradient><linearGradient id="SvgjsLinearGradient111032" x1="-18.4" y1="112.4347" x2="-18.4" y2="87.4347" gradientTransform="matrix(-1 0 0 -1 100 200)" gradientUnits="userSpaceOnUse" class="svga-on-canvas-glasses-gradient-single-1-null"><stop id="SvgjsStop111033" stop-opacity="1" stop-color="#9ab4d3" offset="0" ></stop><stop id="SvgjsStop111034" stop-opacity="0.7593" stop-color="#93aed1" offset="0.2407" ></stop><stop id="SvgjsStop111035" stop-opacity="0.4009" stop-color="#7e9ecc" offset="0.5991" ></stop><stop id="SvgjsStop111036" stop-opacity="0" stop-color="#6086c4" offset="1" ></stop></linearGradient><linearGradient id="SvgjsLinearGradient111366" x1="81.6" y1="112.4347" x2="81.6" y2="87.4347" gradientTransform="matrix(1 0 0 -1 0 200)" gradientUnits="userSpaceOnUse" class="svga-on-canvas-glasses-gradient-single-0-null"><stop id="SvgjsStop111367" stop-opacity="1" stop-color="#9ab4d3" offset="0" ></stop><stop id="SvgjsStop111368" stop-opacity="0.7593" stop-color="#93aed1" offset="0.2407" ></stop><stop id="SvgjsStop111369" stop-opacity="0.4009" stop-color="#7e9ecc" offset="0.5991" ></stop><stop id="SvgjsStop111370" stop-opacity="0" stop-color="#6086c4" offset="1" ></stop></linearGradient><linearGradient id="SvgjsLinearGradient111372" x1="-18.4" y1="112.4347" x2="-18.4" y2="87.4347" gradientTransform="matrix(-1 0 0 -1 100 200)" gradientUnits="userSpaceOnUse" class="svga-on-canvas-glasses-gradient-single-1-null"><stop id="SvgjsStop111373" stop-opacity="1" stop-color="#9ab4d3" offset="0" ></stop><stop id="SvgjsStop111374" stop-opacity="0.7593" stop-color="#93aed1" offset="0.2407" ></stop><stop id="SvgjsStop111375" stop-opacity="0.4009" stop-color="#7e9ecc" offset="0.5991" ></stop><stop id="SvgjsStop111376" stop-opacity="0" stop-color="#6086c4" offset="1" ></stop></linearGradient><linearGradient id="SvgjsLinearGradient111706" x1="81.6" y1="112.4347" x2="81.6" y2="87.4347" gradientTransform="matrix(1 0 0 -1 0 200)" gradientUnits="userSpaceOnUse" class="svga-on-canvas-glasses-gradient-single-0-null"><stop id="SvgjsStop111707" stop-opacity="1" stop-color="#9ab4d3" offset="0" ></stop><stop id="SvgjsStop111708" stop-opacity="0.7593" stop-color="#93aed1" offset="0.2407" ></stop><stop id="SvgjsStop111709" stop-opacity="0.4009" stop-color="#7e9ecc" offset="0.5991" ></stop><stop id="SvgjsStop111710" stop-opacity="0" stop-color="#6086c4" offset="1" ></stop></linearGradient><linearGradient id="SvgjsLinearGradient111712" x1="-18.4" y1="112.4347" x2="-18.4" y2="87.4347" gradientTransform="matrix(-1 0 0 -1 100 200)" gradientUnits="userSpaceOnUse" class="svga-on-canvas-glasses-gradient-single-1-null"><stop id="SvgjsStop111713" stop-opacity="1" stop-color="#9ab4d3" offset="0" ></stop><stop id="SvgjsStop111714" stop-opacity="0.7593" stop-color="#93aed1" offset="0.2407" ></stop><stop id="SvgjsStop111715" stop-opacity="0.4009" stop-color="#7e9ecc" offset="0.5991" ></stop><stop id="SvgjsStop111716" stop-opacity="0" stop-color="#6086c4" offset="1" ></stop></linearGradient><linearGradient id="SvgjsLinearGradient112046" x1="81.6" y1="112.4347" x2="81.6" y2="87.4347" gradientTransform="matrix(1 0 0 -1 0 200)" gradientUnits="userSpaceOnUse" class="svga-on-canvas-glasses-gradient-single-0-null"><stop id="SvgjsStop112047" stop-opacity="1" stop-color="#9ab4d3" offset="0" ></stop><stop id="SvgjsStop112048" stop-opacity="0.7593" stop-color="#93aed1" offset="0.2407" ></stop><stop id="SvgjsStop112049" stop-opacity="0.4009" stop-color="#7e9ecc" offset="0.5991" ></stop><stop id="SvgjsStop112050" stop-opacity="0" stop-color="#6086c4" offset="1" ></stop></linearGradient><linearGradient id="SvgjsLinearGradient112052" x1="-18.4" y1="112.4347" x2="-18.4" y2="87.4347" gradientTransform="matrix(-1 0 0 -1 100 200)" gradientUnits="userSpaceOnUse" class="svga-on-canvas-glasses-gradient-single-1-null"><stop id="SvgjsStop112053" stop-opacity="1" stop-color="#9ab4d3" offset="0" ></stop><stop id="SvgjsStop112054" stop-opacity="0.7593" stop-color="#93aed1" offset="0.2407" ></stop><stop id="SvgjsStop112055" stop-opacity="0.4009" stop-color="#7e9ecc" offset="0.5991" ></stop><stop id="SvgjsStop112056" stop-opacity="0" stop-color="#6086c4" offset="1" ></stop></linearGradient><linearGradient id="SvgjsLinearGradient112386" x1="81.6" y1="112.4347" x2="81.6" y2="87.4347" gradientTransform="matrix(1 0 0 -1 0 200)" gradientUnits="userSpaceOnUse" class="svga-on-canvas-glasses-gradient-single-0-null"><stop id="SvgjsStop112387" stop-opacity="1" stop-color="#9ab4d3" offset="0" ></stop><stop id="SvgjsStop112388" stop-opacity="0.7593" stop-color="#93aed1" offset="0.2407" ></stop><stop id="SvgjsStop112389" stop-opacity="0.4009" stop-color="#7e9ecc" offset="0.5991" ></stop><stop id="SvgjsStop112390" stop-opacity="0" stop-color="#6086c4" offset="1" ></stop></linearGradient><linearGradient id="SvgjsLinearGradient112392" x1="-18.4" y1="112.4347" x2="-18.4" y2="87.4347" gradientTransform="matrix(-1 0 0 -1 100 200)" gradientUnits="userSpaceOnUse" class="svga-on-canvas-glasses-gradient-single-1-null"><stop id="SvgjsStop112393" stop-opacity="1" stop-color="#9ab4d3" offset="0" ></stop><stop id="SvgjsStop112394" stop-opacity="0.7593" stop-color="#93aed1" offset="0.2407" ></stop><stop id="SvgjsStop112395" stop-opacity="0.4009" stop-color="#7e9ecc" offset="0.5991" ></stop><stop id="SvgjsStop112396" stop-opacity="0" stop-color="#6086c4" offset="1" ></stop></linearGradient><linearGradient id="SvgjsLinearGradient112726" x1="81.6" y1="112.4347" x2="81.6" y2="87.4347" gradientTransform="matrix(1 0 0 -1 0 200)" gradientUnits="userSpaceOnUse" class="svga-on-canvas-glasses-gradient-single-0-null"><stop id="SvgjsStop112727" stop-opacity="1" stop-color="#9ab4d3" offset="0" ></stop><stop id="SvgjsStop112728" stop-opacity="0.7593" stop-color="#93aed1" offset="0.2407" ></stop><stop id="SvgjsStop112729" stop-opacity="0.4009" stop-color="#7e9ecc" offset="0.5991" ></stop><stop id="SvgjsStop112730" stop-opacity="0" stop-color="#6086c4" offset="1" ></stop></linearGradient><linearGradient id="SvgjsLinearGradient112732" x1="-18.4" y1="112.4347" x2="-18.4" y2="87.4347" gradientTransform="matrix(-1 0 0 -1 100 200)" gradientUnits="userSpaceOnUse" class="svga-on-canvas-glasses-gradient-single-1-null"><stop id="SvgjsStop112733" stop-opacity="1" stop-color="#9ab4d3" offset="0" ></stop><stop id="SvgjsStop112734" stop-opacity="0.7593" stop-color="#93aed1" offset="0.2407" ></stop><stop id="SvgjsStop112735" stop-opacity="0.4009" stop-color="#7e9ecc" offset="0.5991" ></stop><stop id="SvgjsStop112736" stop-opacity="0" stop-color="#6086c4" offset="1" ></stop></linearGradient><linearGradient id="SvgjsLinearGradient113066" x1="81.6" y1="112.4347" x2="81.6" y2="87.4347" gradientTransform="matrix(1 0 0 -1 0 200)" gradientUnits="userSpaceOnUse" class="svga-on-canvas-glasses-gradient-single-0-null"><stop id="SvgjsStop113067" stop-opacity="1" stop-color="#9ab4d3" offset="0" ></stop><stop id="SvgjsStop113068" stop-opacity="0.7593" stop-color="#93aed1" offset="0.2407" ></stop><stop id="SvgjsStop113069" stop-opacity="0.4009" stop-color="#7e9ecc" offset="0.5991" ></stop><stop id="SvgjsStop113070" stop-opacity="0" stop-color="#6086c4" offset="1" ></stop></linearGradient><linearGradient id="SvgjsLinearGradient113072" x1="-18.4" y1="112.4347" x2="-18.4" y2="87.4347" gradientTransform="matrix(-1 0 0 -1 100 200)" gradientUnits="userSpaceOnUse" class="svga-on-canvas-glasses-gradient-single-1-null"><stop id="SvgjsStop113073" stop-opacity="1" stop-color="#9ab4d3" offset="0" ></stop><stop id="SvgjsStop113074" stop-opacity="0.7593" stop-color="#93aed1" offset="0.2407" ></stop><stop id="SvgjsStop113075" stop-opacity="0.4009" stop-color="#7e9ecc" offset="0.5991" ></stop><stop id="SvgjsStop113076" stop-opacity="0" stop-color="#6086c4" offset="1" ></stop></linearGradient><linearGradient id="SvgjsLinearGradient113406" x1="81.6" y1="112.4347" x2="81.6" y2="87.4347" gradientTransform="matrix(1 0 0 -1 0 200)" gradientUnits="userSpaceOnUse" class="svga-on-canvas-glasses-gradient-single-0-null"><stop id="SvgjsStop113407" stop-opacity="1" stop-color="#9ab4d3" offset="0" ></stop><stop id="SvgjsStop113408" stop-opacity="0.7593" stop-color="#93aed1" offset="0.2407" ></stop><stop id="SvgjsStop113409" stop-opacity="0.4009" stop-color="#7e9ecc" offset="0.5991" ></stop><stop id="SvgjsStop113410" stop-opacity="0" stop-color="#6086c4" offset="1" ></stop></linearGradient><linearGradient id="SvgjsLinearGradient113412" x1="-18.4" y1="112.4347" x2="-18.4" y2="87.4347" gradientTransform="matrix(-1 0 0 -1 100 200)" gradientUnits="userSpaceOnUse" class="svga-on-canvas-glasses-gradient-single-1-null"><stop id="SvgjsStop113413" stop-opacity="1" stop-color="#9ab4d3" offset="0" ></stop><stop id="SvgjsStop113414" stop-opacity="0.7593" stop-color="#93aed1" offset="0.2407" ></stop><stop id="SvgjsStop113415" stop-opacity="0.4009" stop-color="#7e9ecc" offset="0.5991" ></stop><stop id="SvgjsStop113416" stop-opacity="0" stop-color="#6086c4" offset="1" ></stop></linearGradient><linearGradient id="SvgjsLinearGradient113746" x1="81.6" y1="112.4347" x2="81.6" y2="87.4347" gradientTransform="matrix(1 0 0 -1 0 200)" gradientUnits="userSpaceOnUse" class="svga-on-canvas-glasses-gradient-single-0-null"><stop id="SvgjsStop113747" stop-opacity="1" stop-color="#9ab4d3" offset="0" ></stop><stop id="SvgjsStop113748" stop-opacity="0.7593" stop-color="#93aed1" offset="0.2407" ></stop><stop id="SvgjsStop113749" stop-opacity="0.4009" stop-color="#7e9ecc" offset="0.5991" ></stop><stop id="SvgjsStop113750" stop-opacity="0" stop-color="#6086c4" offset="1" ></stop></linearGradient><linearGradient id="SvgjsLinearGradient113752" x1="-18.4" y1="112.4347" x2="-18.4" y2="87.4347" gradientTransform="matrix(-1 0 0 -1 100 200)" gradientUnits="userSpaceOnUse" class="svga-on-canvas-glasses-gradient-single-1-null"><stop id="SvgjsStop113753" stop-opacity="1" stop-color="#9ab4d3" offset="0" ></stop><stop id="SvgjsStop113754" stop-opacity="0.7593" stop-color="#93aed1" offset="0.2407" ></stop><stop id="SvgjsStop113755" stop-opacity="0.4009" stop-color="#7e9ecc" offset="0.5991" ></stop><stop id="SvgjsStop113756" stop-opacity="0" stop-color="#6086c4" offset="1" ></stop></linearGradient></defs><g id="svga-group-wrapper"><g id="svga-group-backs-single"><path id="SvgjsPath113489" d="M0 0h200v200H0V0z" fill="#14305c" stroke-width="none" opacity="1"></path><path id="SvgjsPath113490" d="M0 70.8 39.2 200l39.2-86.3L0 9.9v60.9zM200 0h-47.6l23 37.5L200 0zm-28.9 104.9 16.5-40.7-70.5-26.8 54 67.5zM51.3 200h101.1v-33.1l-73.9 19.5L51.3 200zm27.2-86.3 73.9 53.2L78.5 0v113.7z" fill="#09234d" stroke-width="none" opacity="1"></path><path id="SvgjsPath113491" d="m134.4 0 2 130.8L176.2 0h-41.8zm18 166.9 47.6-14.5v-21.5L171.1 105l-18.7 61.9zm22.9-129.4 12.3 26.8 12.4 6.9V0l-24.7 37.5zm-58.2 0L96.7 26.6 117.1 0 81 18.3 46.7 0h-28l56.2 21.4L0 59.3v93.1L94.8 29l22.3 8.5zM0 200h94.2l42.2-69.2L0 189.1V200z" fill="#01193d" stroke-width="none" opacity="1"></path><path id="SvgjsPath113492" d="M104.4 70.8 91.1 13.5 166.2 0 90 8.6 88 0H68.2l3.5 10.6L0 18.7v11.1l73.7-13.2 19.5 59-65.3 28L0 70.8v5.4l24 29.2-24 10.2 24.5-9.6 57.4 69.8L51.3 200h27.2l11.1-14.9 12.3 14.9h7.9l-16.7-19.6 24.1-32.4 17.2 52.1-29.2-125.6 94.8-37v-7.6l-95.6 40.9zm12.7 77.1-30.9 24.4-57.7-67.9 65.7-25.7 22.9 69.2zm70.5 52.1H200l-47.6-95.1 35.2 95.1z" fill="#ffffff" stroke-width="none" opacity="1"></path></g><g id="svga-group-humanwrap-move" transform="matrix(1,0,0,1,0,0)"><g id="svga-group-humanwrap" transform="matrix(1.0500002000000002,0,0,1.0500002000000002,-5.000019618528768,-6.37002555629428)"><g id="svga-group-hair-back-move" transform="matrix(1,0,0,1,0,0)"><g id="svga-group-hair-back" transform="matrix(1,0,0,1,0,0)"></g></g><g id="svga-group-humanbody-back"><path id="SvgjsPath113571" d="m168.2 200-4.6-14.2-34.9-13.4-10.8-9.7-1.4-50.5h-33l-1.4 50.5-10.8 9.7-34.9 13.4-4.6 14.2-3 20h142.4z" fill="#ebaa82" stroke-width="none" opacity="1" stroke="none"></path><path id="SvgjsPath113572" d="m83.5 112.2-1.4 50.5-10.8 9.7-34.9 13.4-4.6 14.2-3 20H39v-20l1.7-13.3 32.1-12.9 14.1-9.5 2-52.1z" fill="#cc7b48" stroke-width="none" opacity="1" stroke="none"></path></g><g id="svga-group-chinshadow-single"><path id="SvgjsPath113567" d="m117.4 146.9-.9-34.7h-33l-1 38.2 10.7 7 4 1.1 4.1-1.1z" fill="#bd6630" stroke-width="none" opacity="1" stroke="none"></path></g><g id="svga-group-humanbody-front"></g><g id="svga-group-clothes-single"><path id="SvgjsPath113723" d="m100 211.8-21.1-19.4 2.6 27.6h37l2.6-27.6z" fill="#ededed" stroke-width="none" opacity="1"></path><path id="SvgjsPath113724" d="m82.2 159.1-4.2 3.8-14.9 9.2.5.5-26 11.2-3 .7-4.2 15.6-2.8 19.9h56.5l-4.8-53.4 2.8-3.9z" fill="#39557e" stroke-width="none" opacity="1"></path><path id="SvgjsPath113725" d="m117.8 159.1 4.2 3.8 14.9 9.2-.5.5 26 11.2 3 .7 4.2 15.6 2.8 19.9h-56.5l4.8-53.4-2.8-3.9z" fill="#39557e" stroke-width="none" opacity="1"></path><path id="SvgjsPath113726" d="m63.1 172.1.5.5-26 11.2-3 .7-4.2 15.6-2.8 19.9H33l1.1-19.6 2.1-11.6 1.8-.4 41.3-19 .1-2.7 2.8-3.9.1-3.6-4.2 3.7-15 9.2zm73.8 0-.5.5 26 11.2 3 .7 4.2 15.6 2.8 19.9H167l-1.1-19.6-2.1-11.6-1.8-.4-41.3-19-.1-2.7-2.8-3.9-.1-3.6 4.2 3.7 15 9.2z" fill="#27446f" stroke-width="none" opacity="1"></path><path id="SvgjsPath113727" d="m74.4 171.6-9.9 10.9 8.4 37.6h-1.6l-8.8-37.6 7.2-6.9-6.2-3 6.9 1.9 4-2.9zm7.8-12.5-5 8.6 6.5 52.3h.4l-4.8-53.4 2.8-3.9.1-3.6zm-38.5 40-7.1-13.8 6 15.4 2.3 19.3h1.9l-3.1-20.9zm81.9-27.5 9.9 10.9-8.4 37.6h1.6l8.8-37.6-7.2-6.9 6.2-3-6.9 1.9-4-2.9zm-7.8-12.5 5 8.6-6.5 52.3h-.4l4.8-53.4-2.8-3.9-.1-3.6zm38.5 40 7.1-13.8-6 15.4-2.3 19.3h-1.9l3.1-20.9z" fill="#18355f" stroke-width="none" opacity="1"></path><path id="SvgjsPath113728" d="m73.7 173.4-8.2 9.4 8.5 36.6-5.9-36.6 5.6-9.4zm52.6 0 8.2 9.4-8.5 36.6 5.9-36.6-5.6-9.4z" fill="#4e688d" stroke-width="none" opacity="1"></path></g><g id="svga-group-head" transform="matrix(1,0,0,1,0,0)"><g id="svga-group-ears-left-move" transform="matrix(1,0,0,1,0,0)"><g id="svga-group-ears-left" transform="matrix(1,0,0,1,0,0)"><path id="SvgjsPath113519" d="M65.4 96.3s-7.6-6.9-9.2-8c0 0-3.7 1-6.6 2l2.7 9.3 2.9 8.6 1.4 11.5 4.2-.3 5.9-10-1.3-13.1z" fill="#ebaa82" stroke-width="none" opacity="1" stroke="none"></path><path id="SvgjsPath113520" d="M51.4 91.2 56 93l4.4 9.4-.5 8.9-3.4-5.6-.2-4.9s1.2-1.1 1.1-1.5-1.9-5.2-1.9-5.2l-3.7-2s1.3 5.7 1.1 5.4c-.1-.3-2.2-6.2-2.2-6.2l.7-.1z" fill="#cc7b48" stroke-width="none" opacity="1" stroke="none"></path><path id="SvgjsPath113521" d="M53.67 89.04c1.5-.4 2.53-.74 2.53-.74 1.6 1.1 9.2 8 9.2 8l1.3 13.1-5.9 10-4.2.3 4.3-2.9 2.3-15.7-5.9-10.3-3.63-1.76z" fill="#dc9164" stroke-width="none" opacity="1" stroke="none"></path></g></g><g id="svga-group-ears-right-move" transform="matrix(1,0,0,1,0,0)"><g id="svga-group-ears-right" transform="matrix(1,0,0,1,0,0)"><path id="SvgjsPath113522" d="M134.6 96.3s7.6-6.9 9.2-8c0 0 3.7 1 6.6 2l-2.7 9.3-2.9 8.6-1.4 11.5-4.2-.3-5.9-10 1.3-13.1z" fill="#ebaa82" stroke-width="none" opacity="1" stroke="none"></path><path id="SvgjsPath113523" d="M148.6 91.2 144 93l-4.4 9.4.5 8.9 3.4-5.6.2-4.9s-1.2-1.1-1.1-1.5c.1-.3 1.9-5.2 1.9-5.2l3.7-2s-1.3 5.7-1.1 5.4c.1-.3 2.2-6.2 2.2-6.2l-.7-.1z" fill="#cc7b48" stroke-width="none" opacity="1" stroke="none"></path><path id="SvgjsPath113524" d="M146.33 89.03c-1.5-.4-2.53-.73-2.53-.73-1.6 1.1-9.2 8-9.2 8l-1.3 13.1 5.9 10 4.2.3-4.3-2.9-2.3-15.7 5.9-10.3 3.63-1.77z" fill="#dc9164" stroke-width="none" opacity="1" stroke="none"></path></g></g><g id="svga-group-faceshape-wrap" transform="matrix(1,0,0,1,0,0)"><g id="svga-group-faceshape-single"><path id="SvgjsPath113553" d="M136.8 61c-6.7-11.2-19-18.9-19-18.9-7-1.5-17.8-2.2-17.8-2.2s-10.8.8-17.8 2.2c0 0-12.4 7.6-19 18.9 0 0-5 14-5.2 23.9l2.1 23 6.6 19.2 6.3 8.4 23 15 4 1 4-1 22.9-14.9 6.3-8.4 6.6-19.2 2.1-23c-.2-9.9-5.1-24-5.1-24z" fill="#ebaa82" stroke-width="none" opacity="1" stroke="none"></path><path id="SvgjsPath113554" d="m93.8 147.5-17.6-13.8-6.2-8.1-6.2-17.5-3-23 6-22.3 17-18 16-3.3 18 .6c-7-1.5-17.8-2.2-17.8-2.2s-10.8.8-17.8 2.2c0 0-12.4 7.6-19 18.9 0 0-5 14-5.2 23.9l2.1 23 6.6 19.2 6.3 8.4 23 15 4 1 4-1-3.7.3-6.5-3.3z" fill="#cc7b48" stroke-width="none" opacity="1" stroke="none"></path></g></g><g id="svga-group-mouth-single-move" transform="matrix(1,0,0,1,0,0)"><g id="svga-group-mouth-single" transform="matrix(1,0,0,1,0,0)"><path id="SvgjsPath113923" d="m86.12 128.47 10.5-2.08 3.9 2.03 3.33-2.19 11.79 2.28-8.05 7.56-6.99 1.62-6.5-1.54z" fill="#9b565f" stroke-width="none" opacity="1" transform="translate(0 3)" stroke="none"></path><path id="SvgjsPath113924" d="m84.99 128.26 15.53 3.17 16.59-3.17-16.75 2.36z" fill="#8c4049" stroke-width="none" opacity="1" transform="translate(0 3)" stroke="none"></path></g></g><g id="svga-group-eyes-left-move" transform="matrix(1,0,0,1,0,0)"><g id="svga-group-eyes-left" transform="matrix(1,0,0,1,0,0)"><g id="svga-group-eyesback-left"><path id="SvgjsPath113643" d="M92.5 101 85 94.5l-9.2 3-4.8 6.2s9.2 1.6 11.9 1.7l9.6-4.4z" fill="#ffffff" stroke-width="none" opacity="1"></path></g><g id="svga-group-eyesiriswrapper-left" transform="matrix(1,0,0,1,0,0)"><g id="svga-group-eyesiriscontrol-left" transform="matrix(1,0,0,1,0,0)"><g id="svga-group-eyesiris-left" transform="matrix(1,0,0,1,0,0)"><path id="SvgjsPath113587" d="M77.2 101.9v-5l4.4-2.5 4.3 2.5v5l-4.3 2.6z" fill="#4faaab" stroke-width="none" opacity="1"></path><path id="SvgjsPath113588" d="m79.3 103.2 2.3 1.3 4.3-2.6v-3.7L83.7 97l-4.4 2.5z" fill="#69b9ba" stroke-width="none" opacity="1"></path><path id="SvgjsPath113589" d="m81.6 94.6 4.1 2.4v4.8l-4.1 2.4-4.1-2.4V97l4.1-2.4m0-.5L77 96.8v5.3l4.6 2.7 4.6-2.7v-5.3l-4.6-2.7z" fill="#4faaab" stroke-width="none" opacity="1"></path><path id="SvgjsPath113590" d="M82.7 97.4h-2.3l-1.2 2 1.2 2h2.3l1.2-2z" fill="#000000" stroke-width="none" opacity="1"></path><path id="SvgjsPath113591" d="M79.8 96.8h1.8v1.8h-1.8v-1.8z" fill="#ffffff" stroke-width="none" opacity="1"></path><path id="SvgjsPath113592" d="M82 100.8h1v1h-1v-1z" fill="#ffffff" stroke-width="none" opacity="1"></path></g></g></g><g id="svga-group-eyesfront-left"><path id="SvgjsPath113651" d="M68 94.5v11.1l7.7 7.9h10.9l7.7-7.9V94.5l-7.7-7.9H75.7L68 94.5zm3.1 9.2 4.8-6.2 9.2-3 7.5 6.5-9.5 4.4c-2.8-.2-12-1.7-12-1.7z" fill="#ebaa82" stroke-width="none" opacity="1" stroke="none"></path><path id="SvgjsPath113652" d="m75.8 97.5 8.8-3.8 7.8-.9 2.1 8.5-7.7 3.4-3.8.7 9.1-4.4-7.1-6.3z" fill="#e39d72" stroke-width="none" opacity="1" stroke="none"></path><path id="SvgjsPath113653" d="m94.8 102.3-3.5 4.2-4.5 3.4 4.7-4.3z" fill="#dc9164" stroke-width="none" opacity="1" stroke="none"></path><path id="SvgjsPath113654" d="m69.3 106.7 2.4-2.8-.9-.1-3 .5 3.7-1.5.9-1.1h-3.2l3.6-.5.9-1.3-2.7-.7 3 .3 1.2-1.6-2-1.3 2.5.8 3.1-.9-1.2-1.4 1.6 1.2 6.1-1.9-9.6 3.4-4.2 5.7 11.5 1.9-4.7-.5-1 3.1.5-3.1-1.2-.1-.9-.2-2 3.1 1.5-3.2-2.8-.5z" fill="#1b2a40" stroke-width="none" opacity="1" stroke="none"></path></g></g></g><g id="svga-group-eyes-right-move" transform="matrix(1,0,0,1,0,0)"><g id="svga-group-eyes-right" transform="matrix(1,0,0,1,0,0)"><g id="svga-group-eyesback-right"><path id="SvgjsPath113644" d="m107.5 101 7.5-6.5 9.2 3 4.8 6.2s-9.2 1.6-11.9 1.7l-9.6-4.4z" fill="#ffffff" stroke-width="none" opacity="1"></path></g><g id="svga-group-eyesiriswrapper-right" transform="matrix(1,0,0,1,0,0)"><g id="svga-group-eyesiriscontrol-right" transform="matrix(1,0,0,1,0,0)"><g id="svga-group-eyesiris-right" transform="matrix(1,0,0,1,0,0)"><path id="SvgjsPath113593" d="M114.1 101.9v-5l4.3-2.5 4.4 2.5v5l-4.4 2.6z" fill="#4faaab" stroke-width="none" opacity="1"></path><path id="SvgjsPath113594" d="m116.2 103.2 2.2 1.3 4.4-2.6v-3.7l-2.2-1.2-4.4 2.5z" fill="#69b9ba" stroke-width="none" opacity="1"></path><path id="SvgjsPath113595" d="m118.4 94.6 4.1 2.4v4.8l-4.1 2.4-4.1-2.4V97l4.1-2.4m0-.5-4.6 2.7v5.3l4.6 2.7 4.6-2.7v-5.3l-4.6-2.7z" fill="#258b8c" stroke-width="none" opacity="1"></path><path id="SvgjsPath113596" d="M119.6 97.4h-2.3l-1.2 2 1.2 2h2.3l1.2-2z" fill="#000000" stroke-width="none" opacity="1"></path><path id="SvgjsPath113597" d="M116.7 96.8h1.8v1.8h-1.8v-1.8z" fill="#ffffff" stroke-width="none" opacity="1"></path><path id="SvgjsPath113598" d="M118.9 100.8h1v1h-1v-1z" fill="#ffffff" stroke-width="none" opacity="1"></path></g></g></g><g id="svga-group-eyesfront-right"><path id="SvgjsPath113655" d="M124.3 86.6h-10.9l-7.7 7.9v11.1l7.7 7.9h10.9l7.7-7.9V94.5l-7.7-7.9zm-7.3 18.8-9.5-4.4 7.5-6.5 9.2 3 4.8 6.2c-.1 0-9.3 1.5-12 1.7z" fill="#ebaa82" stroke-width="none" opacity="1" stroke="none"></path><path id="SvgjsPath113658" d="m124.2 97.5-8.8-3.8-7.8-.9-2.1 8.5 7.7 3.4 3.8.7-9.1-4.4 7.1-6.3z" fill="#e39d72" stroke-width="none" opacity="1" stroke="none"></path><path id="SvgjsPath113659" d="m105.2 102.3 3.5 4.2 4.5 3.4-4.7-4.3z" fill="#dc9164" stroke-width="none" opacity="1" stroke="none"></path><path id="SvgjsPath113660" d="m130.7 106.7-2.4-2.8.9-.1 3 .5-3.7-1.5-.9-1.1h3.2l-3.6-.5-.9-1.3 2.7-.7-3 .3-1.2-1.6 2-1.3-2.5.8-3.1-.9 1.2-1.4-1.6 1.2-6.1-1.9 9.6 3.4 4.2 5.7-11.5 1.9 4.7-.5 1 3.1-.5-3.1 1.2-.1.9-.2 2 3.1-1.5-3.2 2.8-.5z" fill="#1b2a40" stroke-width="none" opacity="1" stroke="none"></path></g></g></g><g id="svga-group-facehighlight-single"></g><g id="svga-group-eyebrows-left-move" transform="matrix(1,0,0,1,0,0)"><g id="svga-group-eyebrows-left-rotate" transform="matrix(1,0,0,1,0,0)"><g id="svga-group-eyebrows-left" transform="matrix(1,0,0,1,0,0)"><path id="SvgjsPath113709" d="m90.76 88.76-1.2 1.51-15.41-5.49-8.02 2.71 8.82-4.13z" fill="#56342e" stroke-width="none" opacity="1"></path></g></g></g><g id="svga-group-eyebrows-right-move" transform="matrix(1,0,0,1,0,0)"><g id="svga-group-eyebrows-right-rotate" transform="matrix(1,0,0,1,0,0)"><g id="svga-group-eyebrows-right" transform="matrix(1,0,0,1,0,0)"><path id="SvgjsPath113710" d="m109.24 88.76 1.2 1.51 15.41-5.49 8.02 2.71-8.82-4.13z" fill="#56342e" stroke-width="none" opacity="1"></path></g></g></g><g id="svga-group-nose-single-move" transform="matrix(1,0,0,1,0,0)"><g id="svga-group-nose-single" transform="matrix(1,0,0,1,0,0)"><path id="SvgjsPath113933" d="m103.35 108.14-.8-.31 5.16 8.97-1.6 2.28-1.38-.95.22-1.02-1.09.47-1.6 3.15-2.1.08-2.5-.08-1.6-3.15-1.08-.47.21 1.02-1.38.95-1.59-2.28 5.15-8.97.33-10.76-1.13 11.07-5.22 8.81 2.54 3.31 2.17-1.58 1.24 2.76h5.33l1.23-2.76 2.18 1.58 2.54-3.31z" fill="#cc7b48" stroke-width="none" opacity="1" transform="translate(0 2)"></path><path id="SvgjsPath113934" d="m97.27 117.21 1.3.61 3.06.08 1.53-.69-.58-2.35-.98-3.1-2.03 4.07z" fill="#f3b792" stroke-width="none" opacity="1" transform="translate(0 2)"></path></g></g><g id="svga-group-hair-front" transform="matrix(1,0,0,1,0,0)"><path id="SvgjsPath113810" d="m76.4 63.9-4.1 7.4-9.7 13.5-1.2 19.8 4.4 11.6L58 102l-4.8-16.1 2.1-22.1 11.6-14.2 4.9-1.6 6.5-7 18.4-6.3 25.6 4.9 19.9 20.9 4.2 25.8-2.6 6s-2.8 17.4-3.1 18.1-4 7.9-4 7.9l1.6-13.2-1.6-20.3-12.8-9.1-20.9-.2-19.8-7.3-6.8-4.3z" fill="#56342e" stroke-width="none" opacity="1" stroke="none"></path><path id="SvgjsPath113811" d="m61.5 104.7 1.2-19.8 9.7-13.5 4.1-7.4 6.8 4.3 19.8 7.4 20.9.2 12.8 9.1 1.6 20.3-1.6 13.2s3.7-7.2 4-7.9 3.1-18.1 3.1-18.1l-4.4-9.8-16.3-10.4-22.9-1.8-17.8-8.8-6.7-5.9-4-7.8 2.7 9.8L70 70.2 59.6 84.1 57.9 102l7.9 14.2-4.3-11.5zM70.9 57l-4.6 12.1-8.7 13.4-.7 7.1-.3-7.6 8.2-13.4L70.9 57zm-3.2-2.4-7.9 11-3.5 12.2 2.3-12.9 9.1-10.3zm10.4-.4L90 60.1l18.1 4.3 16.3 2.8 15.4 8.8 3.7 5.2-2.8-6.2-15.6-9.8-17.6-2.2-17.2-4.1-12.2-4.7zm-3.1-4 29.7-.6 20.9 5.1 13.7 8.7 2.6 8.5-4-7.8-12.8-7.5-21-5.1L75 50.2zm.8-2.8 15.1-5.9 28.1 1.2 10.6 8.7-11-6.9-28-1.5-14.8 4.4z" fill="#47251f" stroke-width="none" opacity="1" stroke="none"></path></g><g id="svga-group-glasses-single-move" transform="matrix(1,0,0,1,0,0)"><g id="svga-group-glasses-single" transform="matrix(1,0,0,1,0,0)"><path id="SvgjsPath113745" d="M74.2 88.8 69.5 92 68 97.9l.8 6.1 2.2 4.1 3.2 2.7 4.7 1.7 4.4.1 4.1-1.3 4.7-3.8 3-5.6.1-5.3-3.1-4.9-5.1-3-6.5-1.1z" fill="url(#SvgjsLinearGradient113746)" opacity="1"></path><path id="SvgjsPath113751" d="m125.8 88.8 4.7 3.2 1.5 5.9-.8 6.1-2.2 4.1-3.2 2.7-4.7 1.7-4.4.1-4.1-1.3-4.7-3.8-3-5.6-.1-5.3 3.1-4.9 5.1-3 6.5-1.1z" fill="url(#SvgjsLinearGradient113752)" opacity="1"></path><path id="SvgjsPath113757" d="m132.7 89.6-6.3-1.6-7.2-1.1-6.6 1.1-5.6 3-3 .2-3.2-.4h-1.3l-3.2.4-3-.2-5.6-3-6.6-1.1-7.4 1.1-6.3 1.6-3.1.2v3.8l2.2.9.9 3.1.6 6.4 2.2 4.2 3.7 3.1 4.8 1.8 4.7.1 4.2-1.4 5-4 3.4-6.3 1.1-4.5-1-.8-.4-1.6 1.1-.8 2.5-.2h1.3l2.5.2 1.1.8-.4 1.6-1 .8 1.1 4.5 3.4 6.3 5 4 4.2 1.4 4.7-.1 4.8-1.8 3.7-3.1 2.2-4.2.8-6.4.9-3.1 2.2-.9v-3.8l-3.1-.2zm-41.2 17.6-4.4 3.4-4.2 1.3-4.2-.1-4.3-1.6-3.1-2.6-2-3.9-.6-5.7 1.4-4.7 4.3-3.7 6.3-1.2 5.8 1.1 4.7 3 2.9 4.7.1 4.2-2.7 5.8zm39.1-3.5-2 3.9-3.1 2.6-4.3 1.6-4.2.1-4.2-1.3-4.4-3.4-2.7-5.8.1-4.2 2.9-4.7 4.7-3 5.8-1.1 6.3 1.2 4.3 3.7 1.4 4.7-.6 5.7z" fill="#193d31" stroke-width="none" opacity="1"></path></g></g></g></g></g><rect id="svga-credit-rect" width="200" height="15" x="0" y="185" fill="#ecf0f1" opacity="0.5" style="display: none;"></rect><text id="svga-credit-text" font-family="Avenir Next, Roboto, Helvetica, Arial, sans-serif" font-size="10px" text-anchor="start" font-weight="400" size="10px" anchor="start" weight="400" fill="#333333" x="33.40447998046875" y="182.60824704170227" style="display: none;"><tspan id="SvgjsTspan108883" dy="13" x="33.40447998046875">Created on AvatarMaker.com</tspan></text></g></svg>